<svg width="50" height="64" viewBox="0 0 50 64" fill="none" xmlns="http://www.w3.org/2000/svg">
<path d="M2.1047 59.2718L0.830284 61.1261L4.53885 63.6749L5.81327 61.8206L2.1047 59.2718ZM44.1738 2.03327L46.1239 3.15568L42.3195 0.758853L44.1738 2.03327ZM45.8527 16.0168C46.9719 16.5568 48.3169 16.0872 48.8569 14.9681C49.3968 13.8489 48.9273 12.5038 47.8081 11.9639L45.8527 16.0168ZM33.7006 2.23642C32.6715 1.53988 31.2727 1.80946 30.5761 2.83854C29.8796 3.86761 30.1492 5.26649 31.1782 5.96303L33.7006 2.23642ZM5.81327 61.8206C11.1911 53.9959 39.1983 13.2944 44.9382 4.89772L41.2233 2.35819C35.4875 10.7488 7.4886 51.4382 2.1047 59.2718L5.81327 61.8206ZM44.9382 4.89771C45.2887 4.38501 45.6516 3.85554 46.0281 3.30769L42.3195 0.758853C41.9408 1.30988 41.5758 1.84246 41.2233 2.35819L44.9382 4.89771ZM42.2238 0.910863C40.0019 4.77115 39.9092 8.1944 41.0489 10.9327C42.1371 13.547 44.221 15.2296 45.8527 16.0168L47.8081 11.9639C46.9512 11.5505 45.7832 10.5966 45.2034 9.20354C44.6752 7.93453 44.4985 5.97955 46.1239 3.15568L42.2238 0.910863ZM42.2238 0.910863C41.9291 1.42291 41.6339 1.84629 41.3454 2.19581L44.8161 5.06009C45.2804 4.49749 45.7165 3.86346 46.1239 3.15568L42.2238 0.910863ZM41.3454 2.19581C40.0163 3.8063 38.6815 4.04176 37.45 3.86718C36.0398 3.66725 34.6655 2.88953 33.7006 2.23642L31.1782 5.96303C32.2927 6.71735 34.3649 7.97478 36.8184 8.32262C39.4506 8.69581 42.3968 7.99166 44.8161 5.06009L41.3454 2.19581Z" fill="#221115"/>
</svg>
