<svg width="26" height="33" viewBox="0 0 26 33" fill="none" xmlns="http://www.w3.org/2000/svg">
<path d="M1.18205 30.1314L0.530369 31.0796L2.42676 32.383L3.07844 31.4348L1.18205 30.1314ZM22.6943 0.862203L23.6915 1.43615L21.7461 0.210525L22.6943 0.862203ZM23.5528 8.01277C24.1251 8.28888 24.8129 8.04878 25.089 7.47647C25.3651 6.90416 25.125 6.21639 24.5527 5.94027L23.5528 8.01277ZM17.3388 0.966083C16.8126 0.609906 16.0972 0.747758 15.7411 1.27398C15.3849 1.8002 15.5227 2.51553 16.049 2.8717L17.3388 0.966083ZM3.07844 31.4348C5.82842 27.4335 20.15 6.62064 23.0852 2.32695L21.1855 1.02835C18.2525 5.31894 3.93513 26.1257 1.18205 30.1314L3.07844 31.4348ZM23.0852 2.32695C23.2644 2.06477 23.45 1.79403 23.6425 1.51388L21.7461 0.210525C21.5525 0.492293 21.3658 0.764627 21.1855 1.02835L23.0852 2.32695ZM21.6971 0.288255C20.561 2.26223 20.5136 4.01273 21.0964 5.41299C21.6528 6.74982 22.7185 7.61023 23.5528 8.01277L24.5527 5.94027C24.1145 5.72887 23.5173 5.24111 23.2208 4.52876C22.9507 3.87984 22.8603 2.88015 23.6915 1.43615L21.6971 0.288255ZM21.6971 0.288255C21.5464 0.55009 21.3955 0.766587 21.248 0.945321L23.0228 2.40998C23.2602 2.12229 23.4832 1.79808 23.6915 1.43615L21.6971 0.288255ZM21.248 0.945321C20.5683 1.76885 19.8858 1.88925 19.2561 1.79998C18.535 1.69775 17.8322 1.30006 17.3388 0.966083L16.049 2.8717C16.6188 3.25743 17.6784 3.90042 18.9331 4.07829C20.2791 4.26912 21.7856 3.90906 23.0228 2.40998L21.248 0.945321Z" fill="#221115"/>
</svg>
