<svg width="65" height="23" viewBox="0 0 65 23" fill="none" xmlns="http://www.w3.org/2000/svg">
<path d="M0.697 23H4.377V13.4H14.617V10.04H4.377V3.96H15.161V0.599998H0.697V23ZM18.182 23H21.862V8.664L27.942 18.648H30.502L36.582 8.664V23H40.262V0.599998H37.702L29.222 14.552L20.742 0.599998H18.182V23ZM44.4795 23H53.0555C59.4875 23 64.4155 18.136 64.4155 11.8C64.4155 5.432 59.4555 0.599998 52.9915 0.599998H44.4795V23ZM52.8955 3.96C57.4395 3.96 60.6395 7.16 60.6395 11.768C60.6395 16.44 57.4715 19.64 52.8955 19.64H48.1595V3.96H52.8955Z" fill="#221115"/>
<path d="M15.75 13.784H42.054V15.384H15.75V13.784Z" fill="#221115"/>
</svg>
