<svg width="81" height="28" viewBox="0 0 81 28" fill="none" xmlns="http://www.w3.org/2000/svg">
<path d="M0.371249 28H4.97125V16H17.7713V11.8H4.97125V4.2H18.4512V-1.90735e-06H0.371249V28ZM22.2275 28H26.8275V10.08L34.4275 22.56H37.6275L45.2275 10.08V28H49.8275V-1.90735e-06H46.6275L36.0275 17.44L25.4275 -1.90735e-06H22.2275V28ZM55.0994 28H65.8194C73.8594 28 80.0194 21.92 80.0194 14C80.0194 6.04 73.8194 -1.90735e-06 65.7394 -1.90735e-06H55.0994V28ZM65.6194 4.2C71.2994 4.2 75.2994 8.2 75.2994 13.96C75.2994 19.8 71.3394 23.8 65.6194 23.8H59.6994V4.2H65.6194Z" fill="white"/>
<path d="M19.1875 16.48H52.0675V18.48H19.1875V16.48Z" fill="white"/>
</svg>
