<svg width="29" height="45" viewBox="0 0 29 45" fill="none" xmlns="http://www.w3.org/2000/svg">
<circle cx="14.5" cy="31.2292" r="12.5781" fill="#E3E1DE" stroke="#221115" stroke-width="2.15625"/>
<path d="M15.5599 2V0.921875H13.4036V2H15.5599ZM14.4817 36.0208L13.4071 36.1068L15.5599 36.0208L14.4817 36.0208ZM10.0236 30.9545C9.43508 31.045 9.03138 31.5954 9.12191 32.184C9.21243 32.7725 9.7629 33.1762 10.3514 33.0856L10.0236 30.9545ZM18.5624 33.0982C19.1578 33.0939 19.6371 32.6078 19.6328 32.0124C19.6286 31.417 19.1425 30.9377 18.5471 30.942L18.5624 33.0982ZM13.4036 2C13.4036 6.54951 13.3903 30.2235 13.4025 35.0971L15.5587 35.0917C15.5465 30.2216 15.5599 6.55466 15.5599 2H13.4036ZM13.4025 35.0971C13.4032 35.3947 13.4036 35.7023 13.4036 36.0208L15.5599 36.0208C15.5599 35.7005 15.5595 35.3911 15.5587 35.0917L13.4025 35.0971ZM15.5564 35.9348C15.3862 33.8074 14.4937 32.4304 13.3004 31.6584C12.1612 30.9213 10.8816 30.8225 10.0236 30.9545L10.3514 33.0856C10.802 33.0163 11.5221 33.076 12.1291 33.4688C12.6821 33.8265 13.2825 34.5506 13.4071 36.1068L15.5564 35.9348ZM15.5564 35.9348C15.5339 35.6526 15.5355 35.4053 15.5546 35.189L13.4066 34.9999C13.376 35.3481 13.3758 35.7168 13.4071 36.1068L15.5564 35.9348ZM15.5546 35.189C15.6423 34.1923 16.1055 33.7371 16.6392 33.4718C17.2503 33.168 18.0041 33.1021 18.5624 33.0982L18.5471 30.942C17.9023 30.9465 16.7427 31.0124 15.6794 31.5409C14.5387 32.108 13.5664 33.1856 13.4066 34.9999L15.5546 35.189Z" fill="#221115"/>
</svg>
